<svg width="356" height="37" viewBox="0 0 356 37" fill="none" xmlns="http://www.w3.org/2000/svg">
<path d="M0.931818 2.18182V1.09091H24.5227V2.18182H13.2727V36H12.1818V2.18182H0.931818ZM24.6466 36H23.4876L35.9648 1.09091H37.4648L49.9421 36H48.783L36.783 2.45454H36.6466L24.6466 36ZM28.6012 23.1136H44.8285V24.2045H28.6012V23.1136ZM81.6939 1.09091V36H80.603L56.7393 3.13636H56.603V36H55.512V1.09091H56.603L80.4666 33.9545H80.603V1.09091H81.6939ZM88.4229 1.09091L100.423 34.6364H100.559L112.559 1.09091H113.718L101.241 36H99.7411L87.2638 1.09091H88.4229ZM120.379 1.09091V36H119.288V1.09091H120.379ZM129.848 36V1.09091H140.076C142.03 1.09091 143.757 1.50568 145.257 2.33523C146.769 3.16477 147.951 4.32386 148.803 5.8125C149.666 7.30114 150.098 9.04545 150.098 11.0455C150.098 13.0227 149.666 14.7557 148.803 16.2443C147.951 17.7216 146.769 18.875 145.257 19.7045C143.757 20.5227 142.03 20.9318 140.076 20.9318H130.394V19.8409H140.076C141.826 19.8409 143.371 19.4773 144.712 18.75C146.053 18.0227 147.104 17 147.865 15.6818C148.627 14.3636 149.007 12.8182 149.007 11.0455C149.007 9.26136 148.627 7.70454 147.865 6.375C147.104 5.04545 146.053 4.01705 144.712 3.28977C143.371 2.55114 141.826 2.18182 140.076 2.18182H130.939V36H129.848ZM143.144 20.1136L151.735 36H150.507L141.916 20.1136H143.144ZM181.94 1.09091H183.03V24.2045C183.03 26.5682 182.479 28.6818 181.377 30.5455C180.286 32.3977 178.798 33.8636 176.911 34.9432C175.025 36.0114 172.883 36.5455 170.485 36.5455C168.11 36.5455 165.974 36.0057 164.076 34.9261C162.178 33.8466 160.678 32.3807 159.576 30.5284C158.474 28.6648 157.928 26.5568 157.94 24.2045V1.09091H159.03V24.2045C159.03 26.3636 159.525 28.2898 160.513 29.983C161.513 31.6761 162.877 33.0114 164.604 33.9886C166.332 34.9659 168.292 35.4545 170.485 35.4545C172.678 35.4545 174.638 34.9659 176.366 33.9886C178.093 33.0114 179.451 31.6761 180.44 29.983C181.44 28.2898 181.94 26.3636 181.94 24.2045V1.09091ZM192.5 36V1.09091H193.59V34.9091H211.045V36H192.5ZM231.21 1.09091V36H230.12V1.09091H231.21ZM259.361 9.81818C259.191 7.43182 258.276 5.47159 256.617 3.9375C254.969 2.40341 252.793 1.63636 250.089 1.63636C248.316 1.63636 246.731 1.97727 245.333 2.65909C243.935 3.34091 242.833 4.27841 242.026 5.47159C241.219 6.65341 240.816 8.01136 240.816 9.54545C240.816 10.4318 240.964 11.25 241.259 12C241.555 12.75 242.003 13.4375 242.606 14.0625C243.219 14.6761 243.986 15.233 244.907 15.733C245.839 16.2216 246.93 16.6591 248.18 17.0455L252.134 18.2727C253.645 18.7386 254.952 19.2614 256.055 19.8409C257.157 20.4205 258.066 21.0739 258.782 21.8011C259.509 22.517 260.049 23.3182 260.401 24.2045C260.753 25.0795 260.93 26.0568 260.93 27.1364C260.93 28.9545 260.464 30.5739 259.532 31.9943C258.6 33.4148 257.299 34.5284 255.628 35.3352C253.958 36.142 252.02 36.5455 249.816 36.5455C247.691 36.5455 245.833 36.1761 244.242 35.4375C242.651 34.6875 241.39 33.6591 240.458 32.3523C239.538 31.0341 239.02 29.5227 238.907 27.8182H239.998C240.111 29.3182 240.583 30.642 241.413 31.7898C242.242 32.9375 243.367 33.8352 244.788 34.483C246.219 35.1307 247.895 35.4545 249.816 35.4545C251.816 35.4545 253.566 35.108 255.066 34.4148C256.577 33.7102 257.748 32.733 258.577 31.483C259.418 30.233 259.839 28.7841 259.839 27.1364C259.839 25.8864 259.566 24.7898 259.02 23.8466C258.475 22.892 257.617 22.0511 256.447 21.3239C255.276 20.5966 253.748 19.9432 251.861 19.3636L247.907 18.1364C245.168 17.2727 243.117 16.1307 241.753 14.7102C240.401 13.2898 239.725 11.5682 239.725 9.54545C239.725 7.82954 240.174 6.29545 241.072 4.94318C241.969 3.57955 243.197 2.50568 244.753 1.72159C246.322 0.937499 248.1 0.545454 250.089 0.545454C252.089 0.545454 253.844 0.943181 255.356 1.73864C256.867 2.53409 258.066 3.63068 258.952 5.02841C259.839 6.42614 260.339 8.02273 260.452 9.81818H259.361ZM268.63 36V1.09091H269.721V34.9091H287.176V36H268.63ZM293.666 36H292.507L304.984 1.09091H306.484L318.961 36H317.802L305.802 2.45454H305.666L293.666 36ZM297.621 23.1136H313.848V24.2045H297.621V23.1136ZM324.531 1.09091H325.486L339.736 34.3636H339.872L354.122 1.09091H355.077V36H353.986V4.5H353.85L340.35 36H339.259L325.759 4.5H325.622V36H324.531V1.09091Z" fill="black"/>
</svg>
