<svg width="355" height="72" viewBox="0 0 355 72" fill="none" xmlns="http://www.w3.org/2000/svg">
<path d="M3.00016 12.5383C1.3433 12.5383 0.00015831 11.1952 0.00015831 9.53833V3.45469C0.00015831 1.76432 1.39603 0.407701 3.08572 0.455909L56.0457 1.96688C57.4877 2.00803 58.6963 3.06977 58.9229 4.49453L59.65 9.0672C59.9397 10.8891 58.532 12.5383 56.6872 12.5383H40.7605C39.1037 12.5383 37.7605 13.8815 37.7605 15.5383V67.1861C37.7605 68.8429 36.4174 70.1861 34.7605 70.1861H25.4416C23.7848 70.1861 22.4416 68.8429 22.4416 67.1861V15.5383C22.4416 13.8815 21.0985 12.5383 19.4416 12.5383H3.00016Z" fill="black"/>
<path d="M70.9938 66.1632C70.0279 68.9827 67.4638 70.9467 64.4901 71.1449V71.1449C59.3348 71.4886 55.4254 66.574 56.9196 61.6281L72.4632 10.1787C74.4263 3.68102 80.7072 -0.5239 87.4627 0.136963V0.136963C92.86 0.664967 97.4874 4.21642 99.3932 9.2936L118.956 61.4092C120.665 65.9609 117.3 70.8177 112.439 70.8177V70.8177C109.524 70.8177 106.918 69.0025 105.908 66.2688L88.0695 17.9919H87.4968L70.9938 66.1632ZM68.0619 44.4123H107.29V55.9351H68.0619V44.4123Z" fill="black"/>
<path d="M182.435 2.03734C186.695 2.03734 190.148 5.49062 190.148 9.75047V62.9897C190.148 67.8862 186.179 71.8555 181.283 71.8555V71.8555C178.443 71.8555 175.775 70.4953 174.107 68.1971L144.978 28.0591C144.911 27.9669 144.804 27.9123 144.691 27.9123V27.9123C144.494 27.9123 144.335 28.0715 144.335 28.2679V64.1066C144.335 68.3862 140.866 71.8555 136.586 71.8555V71.8555C132.306 71.8555 128.837 68.3862 128.837 64.1066V11.0327C128.837 6.06469 132.864 2.03734 137.832 2.03734V2.03734C140.724 2.03734 143.44 3.42767 145.13 5.77388L173.95 45.7694C174.03 45.8806 174.159 45.9464 174.296 45.9464V45.9464C174.531 45.9464 174.722 45.7557 174.722 45.5203V9.75048C174.722 5.49063 178.175 2.03734 182.435 2.03734V2.03734Z" fill="black"/>
<path d="M207.346 2.03734C210.826 2.03734 213.916 4.26277 215.018 7.56307L230.889 55.0828H231.569L247.883 7.40229C248.981 4.19366 251.997 2.03783 255.389 2.03783V2.03783C260.945 2.03783 264.779 7.60206 262.801 12.7941L243.804 62.6634C241.695 68.1982 236.388 71.8559 230.465 71.8558V71.8558C224.395 71.8556 218.99 68.017 216.989 62.2866L199.71 12.791C197.875 7.53354 201.778 2.03734 207.346 2.03734V2.03734Z" fill="black"/>
<path d="M280.05 2.03734C284.33 2.03734 287.799 5.50665 287.799 9.78627V64.1066C287.799 68.3862 284.33 71.8555 280.05 71.8555V71.8555C275.77 71.8555 272.301 68.3862 272.301 64.1066V9.78627C272.301 5.50666 275.77 2.03734 280.05 2.03734V2.03734Z" fill="black"/>
<path d="M303.83 71.856C301.068 71.856 298.83 69.6174 298.83 66.856V7.03783C298.83 4.27641 301.068 2.03783 303.83 2.03783H327.75C333.285 2.03783 338.01 2.98101 341.923 4.86737C345.836 6.75374 348.855 9.37874 350.907 12.8106C352.983 16.2196 354.021 20.231 354.021 24.8446C354.021 29.481 352.971 33.4696 350.871 36.8106C348.771 40.1287 345.729 42.6742 341.744 44.4469C337.783 46.2196 332.987 47.106 327.356 47.106H312.992C310.231 47.106 307.992 44.8674 307.992 42.106V40.2424C307.992 37.4809 310.231 35.2424 312.992 35.2424H324.85C327.809 35.2424 330.267 34.856 332.224 34.0833C334.18 33.3106 335.636 32.1515 336.59 30.606C337.568 29.0606 338.058 27.1401 338.058 24.8446C338.058 22.5265 337.568 20.5719 336.59 18.981C335.636 17.3901 334.168 16.1856 332.188 15.3674C330.231 14.5265 327.761 14.106 324.779 14.106H319.328C316.566 14.106 314.328 16.3446 314.328 19.106V66.856C314.328 69.6174 312.089 71.856 309.328 71.856H303.83ZM335.519 40.0833C337.31 40.0833 338.965 41.0419 339.856 42.5962L352.341 64.3689C354.252 67.7022 351.845 71.856 348.003 71.856H342.453C340.645 71.856 338.977 70.8795 338.092 69.3023L325.878 47.5296C324.008 44.1966 326.417 40.0833 330.239 40.0833H335.519Z" fill="black"/>
</svg>
